<?xml version="1.0" standalone="no"?>
<!DOCTYPE svg PUBLIC "-//W3C//DTD SVG 20010904//EN"
 "http://www.w3.org/TR/2001/REC-SVG-20010904/DTD/svg10.dtd">
<svg version="1.0" xmlns="http://www.w3.org/2000/svg"
 width="1262.000000pt" height="1280.000000pt" viewBox="0 0 1262.000000 1280.000000"
 preserveAspectRatio="xMidYMid meet">
<metadata>
Created by potrace 1.15, written by Peter Selinger 2001-2017
</metadata>
<g transform="translate(0.000000,1280.000000) scale(0.100000,-0.100000)"
fill="#000000" stroke="none">
<path d="M5853 12790 c-58 -23 -52 42 -103 -1285 -26 -673 -45 -1235 -43
-1249 12 -61 108 -89 151 -43 11 12 23 33 26 47 6 24 96 2307 96 2424 0 50 -4
61 -29 87 -30 29 -58 35 -98 19z"/>
<path d="M9975 11860 c-11 -4 -29 -18 -41 -31 -16 -19 -1302 -2407 -1403
-2606 -11 -23 -21 -55 -21 -70 1 -64 72 -105 131 -75 29 15 104 150 682 1227
851 1588 778 1447 767 1486 -6 18 -16 39 -23 46 -19 19 -69 31 -92 23z"/>
<path d="M1645 11386 c-39 -17 -60 -56 -51 -96 4 -22 260 -342 833 -1043 456
-556 844 -1028 864 -1049 48 -51 97 -53 141 -6 25 27 29 38 24 66 -3 19 -11
42 -19 51 -8 9 -387 473 -844 1031 -457 558 -839 1023 -849 1032 -27 24 -65
30 -99 14z"/>
<path d="M5825 9439 c-541 -52 -1052 -252 -1503 -589 -148 -110 -411 -366
-526 -512 -310 -394 -507 -851 -582 -1350 -21 -139 -30 -566 -15 -680 57 -428
445 -1209 873 -1758 158 -204 524 -906 630 -1210 88 -253 133 -580 158 -1133
11 -261 20 -305 79 -391 17 -25 51 -59 76 -76 66 -46 66 -61 0 -122 -61 -56
-85 -93 -85 -133 0 -40 36 -101 80 -136 l39 -32 -37 -27 c-59 -42 -92 -87 -92
-124 0 -34 40 -104 84 -145 l24 -23 -34 -62 c-19 -35 -34 -77 -34 -95 0 -38 6
-45 307 -329 167 -159 209 -193 245 -203 36 -10 59 -29 143 -121 54 -60 110
-115 125 -123 49 -25 196 -56 295 -62 69 -4 135 0 210 11 185 27 175 22 315
165 105 108 133 131 175 145 140 47 507 469 507 583 0 18 -10 49 -22 68 l-23
37 36 36 c46 48 71 105 62 148 -4 24 -21 47 -60 80 l-55 47 45 48 c95 101 88
174 -23 268 -46 39 -49 45 -42 71 4 16 26 45 48 65 78 70 84 93 98 399 32 672
93 1010 240 1333 56 125 150 278 404 663 136 206 284 434 327 505 44 72 112
180 152 240 261 399 450 969 517 1555 20 173 14 547 -11 725 -79 570 -291
1012 -664 1386 -356 356 -818 604 -1391 749 -386 97 -791 138 -1095 109z"/>
<path d="M37 7730 c-47 -37 -44 -112 5 -144 19 -12 2450 -486 2493 -486 8 0
29 13 47 29 41 37 43 90 5 129 -23 23 -95 38 -903 193 -484 93 -1031 198
-1216 234 -186 36 -353 65 -371 65 -19 0 -46 -9 -60 -20z"/>
<path d="M11190 7054 c-646 -24 -1192 -49 -1213 -55 -75 -20 -88 -122 -21
-161 30 -17 72 -16 1245 27 1528 56 1356 45 1392 85 24 27 28 39 23 68 -10 65
-33 77 -149 79 -56 1 -631 -19 -1277 -43z"/>
<path d="M3065 4762 c-20 -4 -1933 -1184 -1992 -1228 -52 -39 -56 -101 -11
-144 52 -49 28 -62 1096 599 769 475 997 621 1008 643 34 66 -27 145 -101 130z"/>
<path d="M9394 4472 c-22 -15 -44 -58 -44 -85 0 -19 12 -40 38 -66 36 -38
1527 -1266 1589 -1309 43 -30 78 -28 114 7 41 42 40 90 -3 135 -27 27 -1478
1224 -1582 1304 -28 22 -89 30 -112 14z"/>
</g>
</svg>
